<svg xmlns="http://www.w3.org/2000/svg" viewBox="0 0 64 64" role="img" aria-labelledby="title desc">
  <title id="title">Intégrale Group favicon</title>
  <desc id="desc">Monogramme IG premium doré sur fond bleu nuit.</desc>
  <defs>
    <radialGradient id="bgGlow" cx="26%" cy="18%" r="82%">
      <stop offset="0" stop-color="#183356"/>
      <stop offset="0.42" stop-color="#071526"/>
      <stop offset="1" stop-color="#010208"/>
    </radialGradient>
    <linearGradient id="gold" x1="16" y1="10" x2="50" y2="55" gradientUnits="userSpaceOnUse">
      <stop stop-color="#FFF0BE"/>
      <stop offset="0.45" stop-color="#F4C45A"/>
      <stop offset="1" stop-color="#A87416"/>
    </linearGradient>
    <linearGradient id="cream" x1="24" y1="14" x2="34" y2="50" gradientUnits="userSpaceOnUse">
      <stop stop-color="#FFFFFF"/>
      <stop offset="1" stop-color="#F7F3EA"/>
    </linearGradient>
    <filter id="softShadow" x="-30%" y="-30%" width="160%" height="160%" color-interpolation-filters="sRGB">
      <feDropShadow dx="0" dy="5" stdDeviation="4" flood-color="#000" flood-opacity="0.38"/>
    </filter>
  </defs>

  <rect width="64" height="64" rx="18" fill="url(#bgGlow)"/>
  <path d="M10 13.5C10 11.57 11.57 10 13.5 10h37C52.43 10 54 11.57 54 13.5v37c0 1.93-1.57 3.5-3.5 3.5h-37A3.5 3.5 0 0 1 10 50.5v-37Z" fill="none" stroke="#F4C45A" stroke-opacity="0.32" stroke-width="2"/>

  <g filter="url(#softShadow)">
    <path d="M44.75 24.65C42.9 19.95 38.34 16.6 32.95 16.6c-7.64 0-13.35 5.85-13.35 15.4 0 9.37 5.78 15.4 13.76 15.4 6.66 0 11.45-4.08 12.42-10.57H34.5v-7.06H53v4.02C53 46.02 44.78 55 33.22 55 20.2 55 11 45.52 11 32S20.2 9 33 9c9.95 0 17.72 5.96 20.02 15.65h-8.27Z" fill="url(#gold)"/>
    <path d="M26.2 46.95V17.05h8.32v29.9H26.2Z" fill="url(#cream)"/>
    <path d="M23.35 14.1h14.05v6.28H23.35V14.1Zm0 29.52h14.05v6.28H23.35v-6.28Z" fill="url(#cream)"/>
  </g>

  <path d="M15 15.2c6.5-5.1 20.35-6.2 31.2.45" fill="none" stroke="#FFFFFF" stroke-opacity="0.16" stroke-width="2" stroke-linecap="round"/>
</svg>
